HIERARCHY
ROOT Hips
{
	OFFSET 0.000000 89.005402 0.000000
	CHANNELS 6 Xposition Yposition Zposition Xrotation Yrotation Zrotation
	JOINT Spine
	{
		OFFSET 0.116900 10.681000 0.373400
		CHANNELS 3 Xrotation Yrotation Zrotation
		JOINT Spine1
		{
			OFFSET 0.000000 13.840401 0.053500
			CHANNELS 3 Xrotation Yrotation Zrotation
			JOINT Spine2
			{
				OFFSET 0.000000 14.712700 -0.366200
				CHANNELS 3 Xrotation Yrotation Zrotation
				JOINT Neck
				{
					OFFSET 0.000000 35.415497 -3.314200
					CHANNELS 3 Xrotation Yrotation Zrotation
					JOINT Head
					{
						OFFSET 0.000000 16.899200 1.218300
						CHANNELS 3 Xrotation Yrotation Zrotation
						JOINT HeadTop_End
						{
							OFFSET 0.000000 22.206207 2.192500
							CHANNELS 3 Xrotation Yrotation Zrotation
							End Site
							{
								OFFSET 0.000000 22.314178 0.000000
							}
						}
					}
				}
				JOINT LeftShoulder
				{
					OFFSET 12.896400 26.716293 -4.548400
					CHANNELS 3 Xrotation Yrotation Zrotation
					JOINT LeftArm
					{
						OFFSET 19.027000 -4.857010 -1.718400
						CHANNELS 3 Xrotation Yrotation Zrotation
						JOINT LeftForeArm
						{
							OFFSET 24.179897 0.000000 0.000000
							CHANNELS 3 Xrotation Yrotation Zrotation
							JOINT LeftHand
							{
								OFFSET 27.156403 0.000000 0.000000
								CHANNELS 3 Xrotation Yrotation Zrotation
								JOINT LeftHandIndex1
								{
									OFFSET 16.441200 0.000000 0.000000
									CHANNELS 3 Xrotation Yrotation Zrotation
									JOINT LeftHandIndex2
									{
										OFFSET 4.821899 0.000000 0.000000
										CHANNELS 3 Xrotation Yrotation Zrotation
										JOINT LeftHandIndex3
										{
											OFFSET 6.386497 0.000000 0.000000
											CHANNELS 3 Xrotation Yrotation Zrotation
											JOINT LeftHandIndex4
											{
												OFFSET 5.188988 0.000000 0.000000
												CHANNELS 3 Xrotation Yrotation Zrotation
												End Site
												{
													OFFSET -0.178703 5.185913 0.000177
												}
											}
										}
									}
								}
								JOINT LeftHandThumb1
								{
									OFFSET 6.534897 -5.032593 5.900300
									CHANNELS 3 Xrotation Yrotation Zrotation
									JOINT LeftHandThumb2
									{
										OFFSET 3.818176 -2.204422 2.204423
										CHANNELS 3 Xrotation Yrotation Zrotation
										JOINT LeftHandThumb3
										{
											OFFSET 3.252098 -1.877594 1.877601
											CHANNELS 3 Xrotation Yrotation Zrotation
											JOINT LeftHandThumb4
											{
												OFFSET 5.251778 -3.032120 3.032117
												CHANNELS 3 Xrotation Yrotation Zrotation
												End Site
												{
													OFFSET 0.000023 6.780014 0.000000
												}
											}
										}
									}
								}
							}
						}
					}
				}
				JOINT RightShoulder
				{
					OFFSET -12.896300 26.716293 -4.548400
					CHANNELS 3 Xrotation Yrotation Zrotation
					JOINT RightArm
					{
						OFFSET -19.027000 -4.857010 -1.718400
						CHANNELS 3 Xrotation Yrotation Zrotation
						JOINT RightForeArm
						{
							OFFSET -24.179897 0.000000 0.000000
							CHANNELS 3 Xrotation Yrotation Zrotation
							JOINT RightHand
							{
								OFFSET -27.156403 0.000000 0.000000
								CHANNELS 3 Xrotation Yrotation Zrotation
								JOINT RightHandThumb1
								{
									OFFSET -6.591202 -4.852203 5.988100
									CHANNELS 3 Xrotation Yrotation Zrotation
									JOINT RightHandThumb2
									{
										OFFSET -3.818176 -2.204422 2.204423
										CHANNELS 3 Xrotation Yrotation Zrotation
										JOINT RightHandThumb3
										{
											OFFSET -3.252098 -1.877594 1.877601
											CHANNELS 3 Xrotation Yrotation Zrotation
											JOINT RightHandThumb4
											{
												OFFSET -5.251778 -3.032120 3.032117
												CHANNELS 3 Xrotation Yrotation Zrotation
												End Site
												{
													OFFSET -0.000023 6.780014 0.000000
												}
											}
										}
									}
								}
								JOINT RightHandIndex1
								{
									OFFSET -16.029404 0.000000 0.000000
									CHANNELS 3 Xrotation Yrotation Zrotation
									JOINT RightHandIndex2
									{
										OFFSET -5.213303 0.000000 0.000000
										CHANNELS 3 Xrotation Yrotation Zrotation
										JOINT RightHandIndex3
										{
											OFFSET -6.386528 0.000000 0.000000
											CHANNELS 3 Xrotation Yrotation Zrotation
											JOINT RightHandIndex4
											{
												OFFSET -5.189026 0.000000 0.000000
												CHANNELS 3 Xrotation Yrotation Zrotation
												End Site
												{
													OFFSET 0.236702 5.183624 0.001972
												}
											}
										}
									}
								}
							}
						}
					}
				}
			}
		}
	}
	JOINT LeftUpLeg
	{
		OFFSET 14.073000 -7.904099 -1.463000
		CHANNELS 3 Xrotation Yrotation Zrotation
		JOINT LeftLeg
		{
			OFFSET -0.109806 -34.073280 4.093200
			CHANNELS 3 Xrotation Yrotation Zrotation
			JOINT LeftFoot
			{
				OFFSET 0.109806 -29.899420 -6.319000
				CHANNELS 3 Xrotation Yrotation Zrotation
				JOINT LeftToeBase
				{
					OFFSET 1.551100 -14.988700 20.535801
					CHANNELS 3 Xrotation Yrotation Zrotation
					JOINT LeftToe_End
					{
						OFFSET 0.221200 0.570800 13.248301
						CHANNELS 3 Xrotation Yrotation Zrotation
						End Site
						{
							OFFSET 0.000000 13.262435 0.000000
						}
					}
				}
			}
		}
	}
	JOINT RightUpLeg
	{
		OFFSET -13.839300 -7.904099 -1.463000
		CHANNELS 3 Xrotation Yrotation Zrotation
		JOINT RightLeg
		{
			OFFSET 0.109694 -34.073219 4.093300
			CHANNELS 3 Xrotation Yrotation Zrotation
			JOINT RightFoot
			{
				OFFSET -0.109694 -29.899384 -6.319200
				CHANNELS 3 Xrotation Yrotation Zrotation
				JOINT RightToeBase
				{
					OFFSET -1.551100 -14.988700 20.535801
					CHANNELS 3 Xrotation Yrotation Zrotation
					JOINT RightToe_End
					{
						OFFSET -0.221200 0.570900 13.248299
						CHANNELS 3 Xrotation Yrotation Zrotation
						End Site
						{
							OFFSET 0.000000 13.262440 0.000000
						}
					}
				}
			}
		}
	}
}
MOTION
Frames: 9
Frame Time: 0.033333
6.910591 86.256989 -2.870816 -4.782780 4.921085 -0.544586 5.554411 0.138668 0.832998 1.583444 0.019131 0.656025 1.583340 0.025259 0.655976 1.379860 -0.177401 0.594132 8.397102 0.666959 -4.295199 0.000000 0.000000 -0.000000 1.126168 -12.293604 -9.432665 2.244063 -33.801073 -65.778417 0.000002 -7.543264 0.000015 19.795461 -7.822865 2.561572 -0.780923 1.088198 -35.351813 0.333915 2.122122 -17.881497 -0.000004 -0.000007 -0.000006 0.000000 -0.000001 -0.000001 -1.180871 4.302005 6.311369 10.667789 29.945141 -4.301807 4.316262 14.942989 -0.273293 0.000001 0.000002 0.000001 1.385186 7.919610 9.326828 5.965065 24.628979 63.111897 -0.000002 15.756358 0.000011 26.382007 4.832032 6.129711 -1.033767 -1.963139 -2.428772 10.579577 -23.573138 0.995178 1.851091 -8.307496 -2.161124 -0.000001 -0.000002 0.000000 -3.714343 2.094493 39.570766 0.151598 -1.446897 11.961972 0.036747 -0.715548 5.882033 0.000000 -0.000001 0.000002 -4.534527 10.406488 7.708331 19.373791 8.900735 3.309895 -9.109499 2.600430 -9.815495 -0.624290 -0.000007 -0.000001 -0.000000 0.000002 0.000000 -4.101441 -6.327591 -6.487158 16.982758 -7.425833 -1.306359 -6.624437 -3.404606 8.672462 -0.058877 0.000003 0.000001 0.000000 -0.000000 -0.000000 
6.907528 86.255112 -2.906194 -4.817487 4.876630 -0.534573 5.572524 0.159972 0.864113 1.587625 0.024035 0.659526 1.587495 0.030121 0.659490 1.395348 -0.180275 0.591345 8.403611 0.650741 -4.302124 0.000002 0.000000 -0.000000 1.123836 -12.292948 -9.452922 2.216759 -33.832700 -65.824507 -0.000001 -7.541811 0.000001 19.824657 -7.819944 2.626920 -0.761170 1.111211 -35.309062 0.335875 2.128180 -17.934323 -0.000002 -0.000008 -0.000005 0.000001 -0.000001 -0.000001 -1.179513 4.304188 6.291100 10.678687 29.970201 -4.309668 4.316269 14.942972 -0.273268 0.000001 -0.000004 -0.000001 1.385724 7.972374 9.370566 6.009853 24.560209 63.006043 0.000004 15.769544 -0.000028 26.382871 4.846565 6.177181 -1.043282 -1.921512 -2.533930 10.555084 -23.517320 0.988819 1.817103 -8.217710 -2.161249 -0.000003 -0.000001 -0.000001 -3.711331 2.099176 39.537172 0.151556 -1.446674 11.959963 0.036508 -0.713055 5.861570 0.000000 -0.000001 -0.000002 -4.516034 10.415763 7.702304 19.383032 8.903018 3.295136 -9.095969 2.629841 -9.800216 -0.634726 0.000002 0.000002 -0.000000 -0.000000 0.000000 -4.127513 -6.321340 -6.502244 17.018818 -7.425928 -1.304667 -6.607022 -3.368588 8.665008 -0.049364 0.000001 0.000000 -0.000000 -0.000000 0.000000 
6.904338 86.250099 -2.947194 -4.855810 4.841884 -0.524651 5.595456 0.169025 0.890798 1.593611 0.026049 0.661102 1.593475 0.032079 0.661070 1.397971 -0.184661 0.600349 8.396434 0.646064 -4.322054 0.000000 0.000001 -0.000000 1.123261 -12.301972 -9.461887 2.201367 -33.890582 -65.856752 -0.000002 -7.546456 -0.000001 19.808216 -7.811570 2.656887 -0.739993 1.135908 -35.262573 0.338050 2.134927 -17.993199 -0.000004 -0.000007 -0.000006 -0.000000 -0.000000 0.000000 -1.178668 4.305488 6.272720 10.689285 29.994506 -4.317340 4.316424 14.943327 -0.273333 0.000002 -0.000001 0.000001 1.382877 7.961585 9.390978 5.992773 24.543496 62.969918 0.000010 15.744694 -0.000016 26.396963 4.866504 6.200563 -1.052696 -1.879719 -2.638005 10.530819 -23.461946 0.982517 1.784044 -8.130334 -2.161375 -0.000000 0.000002 0.000001 -3.708356 2.104556 39.500401 0.151484 -1.446387 11.957801 0.036280 -0.710712 5.842188 -0.000002 -0.000002 -0.000001 -4.512096 10.424026 7.701133 19.412552 8.902177 3.280006 -9.087719 2.645653 -9.784500 -0.641035 -0.000009 -0.000001 0.000000 0.000000 -0.000000 -4.157399 -6.299839 -6.506852 17.070021 -7.438768 -1.319434 -6.593443 -3.351590 8.668954 -0.041697 -0.000003 -0.000002 -0.000000 -0.000001 -0.000000 
6.900360 86.246956 -2.990552 -4.884126 4.826355 -0.508793 5.605354 0.158389 0.916436 1.594887 0.023259 0.667027 1.594764 0.029302 0.666988 1.402836 -0.181393 0.581470 8.395645 0.633661 -4.308516 0.000000 0.000000 0.000000 1.122009 -12.286561 -9.489280 2.182186 -33.922698 -65.881525 0.000004 -7.554538 -0.000027 19.866141 -7.805942 2.672228 -0.719338 1.160053 -35.216114 0.340453 2.142338 -18.057854 -0.000003 -0.000009 -0.000008 0.000003 -0.000001 0.000000 -1.178819 4.305113 6.254946 10.700242 30.019474 -4.325209 4.315629 14.941403 -0.272844 0.000003 -0.000000 0.000000 1.383184 7.991568 9.413104 6.029913 24.496685 62.936040 0.000002 15.776409 0.000001 26.370160 4.843474 6.179056 -1.061932 -1.838673 -2.749103 10.507678 -23.409063 0.976538 1.752529 -8.046983 -2.161514 -0.000000 0.000001 0.000001 -3.705532 2.111133 39.459068 0.151465 -1.446297 11.956957 0.036041 -0.708518 5.824049 0.000002 -0.000001 0.000001 -4.519296 10.421972 7.693717 19.423970 8.899565 3.269521 -9.064966 2.627671 -9.770159 -0.627982 -0.000003 -0.000004 0.000000 -0.000000 0.000000 -4.195912 -6.304338 -6.532606 17.119323 -7.433589 -1.308080 -6.581141 -3.334347 8.656491 -0.030646 0.000005 0.000002 0.000000 -0.000001 0.000000 
6.897542 86.248741 -3.031677 -4.900309 4.796718 -0.491821 5.590990 0.138328 0.937718 1.594071 0.018434 0.669480 1.593974 0.024397 0.669432 1.407509 -0.176073 0.566960 8.405981 0.636400 -4.293481 0.000001 -0.000000 0.000000 1.121341 -12.230545 -9.519439 2.204704 -33.984856 -65.882379 -0.000003 -7.564101 0.000001 19.927994 -7.742130 2.651139 -0.701046 1.181409 -35.174255 0.343216 2.150765 -18.131456 -0.000002 -0.000008 -0.000004 -0.000000 0.000001 0.000001 -1.179832 4.303134 6.236115 10.712190 30.046709 -4.333782 4.312767 14.934840 -0.271245 0.000001 0.000001 0.000002 1.386810 8.049380 9.425405 6.105950 24.432295 62.923999 -0.000002 15.852714 0.000013 26.375810 4.821501 6.146360 -1.070985 -1.799031 -2.871066 10.486366 -23.360377 0.971057 1.723089 -7.969029 -2.161591 0.000000 0.000003 0.000001 -3.702354 2.119408 39.407722 0.151495 -1.446421 11.957971 0.035823 -0.706500 5.807376 0.000002 -0.000001 -0.000004 -4.518352 10.424907 7.680648 19.404789 8.897220 3.254084 -9.029449 2.618845 -9.750349 -0.606243 -0.000002 -0.000002 0.000000 0.000002 0.000000 -4.239666 -6.313413 -6.564426 17.143737 -7.420097 -1.291579 -6.554208 -3.302727 8.638302 -0.026434 0.000000 -0.000000 0.000000 0.000000 0.000000 
6.886609 86.252037 -3.072936 -4.897201 4.728796 -0.461516 5.552510 0.113779 0.937585 1.589448 0.012619 0.672907 1.589381 0.018591 0.672848 1.391629 -0.163895 0.547300 8.453279 0.666286 -4.297976 0.000000 0.000000 -0.000000 1.118004 -12.085057 -9.565694 2.256578 -34.024454 -65.853255 -0.000005 -7.567883 -0.000013 19.984020 -7.711584 2.563741 -0.687399 1.197674 -35.145049 0.346330 2.160203 -18.213960 -0.000004 -0.000011 -0.000005 -0.000000 -0.000001 -0.000002 -1.180802 4.301177 6.216543 10.725475 30.076977 -4.343327 4.307083 14.921844 -0.268094 0.000002 -0.000001 -0.000000 1.386785 8.046864 9.382905 6.070375 24.465524 63.034108 -0.000000 15.787113 -0.000006 26.421053 4.821887 6.127460 -1.079499 -1.762738 -2.994111 10.468434 -23.319355 0.966517 1.697335 -7.900864 -2.161662 0.000001 -0.000000 -0.000001 -3.696524 2.130581 39.328359 0.151539 -1.446583 11.959309 0.035652 -0.704717 5.792990 0.000001 -0.000000 0.000006 -4.504647 10.413972 7.641809 19.347185 8.895905 3.242562 -8.972638 2.667466 -9.734254 -0.585855 0.000000 -0.000003 -0.000000 -0.000002 -0.000000 -4.328291 -6.311041 -6.606503 17.184136 -7.415818 -1.290920 -6.527811 -3.215962 8.626247 -0.026517 -0.000003 0.000001 0.000000 -0.000001 -0.000000 
6.873589 86.248360 -3.121106 -4.897909 4.581055 -0.444144 5.511342 0.119586 0.934441 1.583531 0.014150 0.674685 1.583452 0.020108 0.674629 1.369656 -0.142439 0.515690 8.499457 0.718093 -4.269385 -0.000000 -0.000000 0.000000 1.115645 -11.860383 -9.603718 2.335627 -34.088330 -65.827143 0.000008 -7.570661 -0.000024 19.990444 -7.720324 2.575815 -0.679356 1.208210 -35.137502 0.349174 2.168876 -18.289583 -0.000005 -0.000010 -0.000007 -0.000001 0.000002 0.000003 -1.179749 4.302722 6.200815 10.739030 30.107573 -4.352949 4.299600 14.904748 -0.263948 -0.000000 0.000003 0.000001 1.391089 8.054663 9.326558 6.087926 24.481860 63.152325 0.000005 15.829935 -0.000022 26.465281 4.786019 6.092237 -1.086614 -1.732416 -3.082566 10.454742 -23.288121 0.963112 1.677048 -7.847149 -2.161709 0.000001 0.000001 0.000000 -3.685193 2.144563 39.205853 0.151454 -1.446178 11.955974 0.035512 -0.703295 5.781151 0.000001 -0.000000 0.000004 -4.491303 10.429377 7.624855 19.333805 8.894933 3.215298 -8.946959 2.766855 -9.719259 -0.570474 -0.000005 0.000001 -0.000000 0.000000 0.000000 -4.458227 -6.281015 -6.631626 17.259717 -7.398362 -1.302353 -6.498754 -3.096949 8.611355 -0.026621 -0.000003 -0.000000 0.000000 -0.000001 -0.000000 
6.852005 86.239250 -3.179320 -4.884768 4.361781 -0.447993 5.452921 0.154421 0.915602 1.574084 0.022894 0.666847 1.573964 0.028745 0.666815 1.329040 -0.126910 0.513356 8.570321 0.783456 -4.250689 -0.000000 0.000000 0.000000 1.118546 -11.646320 -9.555487 2.433725 -34.137388 -65.852183 0.000007 -7.576149 0.000012 19.941656 -7.713574 2.568884 -0.676855 1.213939 -35.159796 0.350495 2.172826 -18.324228 -0.000005 -0.000010 -0.000008 -0.000005 -0.000001 0.000000 -1.175131 4.310531 6.197739 10.748801 30.129310 -4.359761 4.292954 14.889442 -0.260207 0.000001 -0.000000 0.000001 1.387728 7.993395 9.291181 6.039166 24.557264 63.310499 0.000005 15.791169 -0.000006 26.612005 4.800051 6.091569 -1.091183 -1.712218 -3.073218 10.446411 -23.268981 0.961061 1.665120 -7.815528 -2.161747 0.000000 -0.000002 0.000000 -3.664358 2.160655 39.019170 0.151065 -1.444390 11.940786 0.035430 -0.702365 5.773313 0.000000 0.000002 -0.000000 -4.502705 10.447985 7.622355 19.358305 8.896429 3.205812 -8.936935 2.943929 -9.724954 -0.545851 -0.000007 0.000001 -0.000000 -0.000000 0.000000 -4.639406 -6.216069 -6.626194 17.351616 -7.374689 -1.322757 -6.455619 -2.941356 8.586501 -0.026717 -0.000005 -0.000003 -0.000000 -0.000001 0.000000 
6.804017 86.229660 -3.236018 -4.831187 4.054688 -0.431768 5.340774 0.183826 0.848384 1.545796 0.030645 0.648452 1.545635 0.036384 0.648444 1.293460 -0.092849 0.500412 8.672914 0.917873 -4.201468 -0.000000 -0.000000 -0.000000 1.125405 -11.349124 -9.452423 2.598869 -34.164838 -65.906217 -0.000007 -7.586652 -0.000004 19.910153 -7.678070 2.609904 -0.678379 1.216845 -35.210841 0.349623 2.170233 -18.301403 -0.000005 -0.000010 -0.000005 0.000003 0.000001 -0.000002 -1.168920 4.321523 6.214891 10.748858 30.128624 -4.359437 4.291352 14.885518 -0.259144 0.000003 0.000003 0.000002 1.390794 7.956483 9.184851 5.992340 24.639470 63.593009 -0.000002 15.821081 0.000013 26.795947 4.785723 6.107394 -1.092897 -1.701755 -2.920023 10.441127 -23.256931 0.959607 1.662156 -7.807712 -2.161722 -0.000002 0.000000 0.000001 -3.634561 2.177429 38.777344 0.150282 -1.440726 11.909965 0.035398 -0.702208 5.772041 -0.000001 -0.000000 -0.000003 -4.499373 10.442766 7.584762 19.325568 8.900653 3.211620 -8.893373 3.241611 -9.755448 -0.527698 -0.000008 -0.000003 0.000000 -0.000002 -0.000000 -4.919243 -6.123686 -6.624389 17.495798 -7.369688 -1.364203 -6.424118 -2.701199 8.555407 -0.026828 -0.000000 0.000003 0.000000 -0.000001 -0.000000 
